<svg height="93.457" width="435.163" xmlns="http://www.w3.org/2000/svg"><g style="font-style:normal;font-weight:400;font-size:72px;line-height:1;font-family:'Brandmark Sans 30 Color';font-variant-ligatures:normal;text-align:center;text-anchor:middle"><path class="c3" d="M8.425 13.478v3.707c2.92-2.92 7.301-4.268 13.704-4.268 10.334 0 15.613 3.033 18.197 8.312 3.033-5.729 8.425-8.312 17.187-8.312 17.748 0 19.433 9.098 19.433 26.397V71.89H68.52V36.73c0-10.446-2.584-15.389-9.66-15.389h-5.167c-7.078 0-11.009 4.943-11.009 12.918V71.89h-8.424V36.73c0-10.446-2.584-15.389-9.66-15.389h-5.168c-7.077 0-11.008 4.943-11.008 12.918v37.63H0V13.48Z" fill="#bda95a" aria-label="^m"/><path class="c3" d="M81.827 42.46c0-18.535 11.12-29.543 27.52-29.543 7.414 0 13.256 2.696 17.524 7.189v-6.628h8.425V71.89h-8.425v-6.628c-4.268 4.606-10.11 7.302-17.523 7.302-16.4 0-27.521-11.12-27.521-30.105zm23.701 21.117h7.302c9.099 0 14.041-6.402 14.041-16.512v-9.211c0-10.11-4.942-16.513-14.041-16.513h-7.302c-9.098 0-15.276 7.863-15.276 21.118 0 13.255 6.178 21.118 15.276 21.118z" fill="#bda95a" aria-label="^a"/><path class="c3" d="M140.18 42.46c0-18.535 11.121-29.543 27.522-29.543 7.413 0 13.254 2.696 17.523 7.189v-6.628h8.425v57.288c0 14.379-8.425 22.691-22.803 22.691h-6.852c-14.042 0-21.905-5.504-21.905-18.76h8.425c0 8.426 2.808 10.335 13.48 10.335h6.852c10.222 0 14.378-4.043 14.378-14.266v-5.504c-4.269 4.606-10.11 7.302-17.523 7.302-16.4 0-27.521-11.12-27.521-30.105zm23.702 21.117h7.302c9.098 0 14.04-6.402 14.04-16.512v-9.211c0-10.11-4.942-16.513-14.04-16.513h-7.302c-9.098 0-15.277 7.863-15.277 21.118 0 13.255 6.179 21.118 15.277 21.118z" fill="#bda95a" aria-label="^g"/><path class="c3" d="M206.959 13.478v5.055c3.482-3.819 8.65-5.616 15.95-5.616 17.749 0 24.488 9.098 24.488 26.397V71.89h-8.424V36.73c0-10.446-3.707-15.389-10.784-15.389h-10.222c-7.076 0-11.008 4.943-11.008 12.918v37.63h-8.425V13.48Z" fill="#bda95a" aria-label="^n"/><path class="c3" d="M252.281 42.572c0-19.433 10.11-29.655 26.285-29.655 16.176 0 26.286 10.222 26.286 29.655v2.246H260.93c.449 14.154 5.279 18.984 14.602 18.984h7.077c5.841 0 10.222-3.707 12.918-11.008h8.425c-3.145 12.468-12.356 19.657-25.387 19.657-16.849 0-26.285-11.232-26.285-29.88zm43.697-5.617c-1.124-11.57-5.842-15.614-14.379-15.614h-6.066c-8.536 0-13.254 4.044-14.378 15.614z" fill="#bda95a" aria-label="^e"/><path class="c3" d="M331.325 71.891h-7.863c-8.537 0-13.705-5.167-13.705-13.704V0h8.426v13.48h13.142v8.424h-13.142v36.283c0 4.38.898 5.28 5.28 5.28h7.862z" fill="#bda95a" aria-label="^t"/><g aria-label="X"><path class="c3" fill="#bda95a" d="M352.477 45.156h17.299l-17.3 26.735h-17.298z"/><path class="c1" fill="#fcfcfc" d="m404.935 0-24.824 34.486 26.623 37.405H388.76l-24.152-34.036L336.528 0h18.197l16.399 22.017L386.962 0z"/></g><path class="c1" d="M435.163 71.891h-6.74c-10.895 0-17.972-7.077-17.972-17.973V0h14.603v13.48h10.11v14.602h-10.11v25.836c0 3.37 0 3.37 3.37 3.37h6.74z" fill="#fcfcfc" aria-label="t"/></g></svg>